# xmcd CD database file generated by Grip 3.3.1
# 
# Track frame offsets:
#       150
#       19300
#       35512
#       53850
#       72187
#       90000
#       110550
#       125625
#       141037
#       163462
# 
# Disc length: 2356 seconds
# 
# Revision: 2
# Processed by: cddbd v1.5.2PL0 Copyright (c) Steve Scherf et al.
# Submitted via: Grip 3.3.1
# 
DISCID=8909320a
DTITLE=GRASS VALLEY - STYLE
DYEAR=1988
DGENRE=Pop
TTITLE0=STYLE
TTITLE1=STAYING HEAVEN
TTITLE2=BOAT
TTITLE3=夕凪
TTITLE4=SHINING DROPS
TTITLE5=星の棲む川
TTITLE6=赤い群衆
TTITLE7=飛行船
TTITLE8=BYE
TTITLE9=EDUCATION
EXTD=
EXTT0=
EXTT1=
EXTT2=
EXTT3=
EXTT4=
EXTT5=
EXTT6=
EXTT7=
EXTT8=
EXTT9=
PLAYORDER=
